<?xml version="1.0" encoding="utf-8"?>
<!-- Generator: Adobe Illustrator 24.1.2, SVG Export Plug-In . SVG Version: 6.00 Build 0)  -->
<svg version="1.1" id="Layer_1" xmlns="http://www.w3.org/2000/svg" xmlns:xlink="http://www.w3.org/1999/xlink" x="0px" y="0px"
	 viewBox="0 0 860 159.1" style="enable-background:new 0 0 860 159.1;" xml:space="preserve">
<style type="text/css">
	.st0{fill:#FFFFFF;}
	.st1{fill-rule:evenodd;clip-rule:evenodd;fill:#FFFFFF;}
</style>
<g>
	<path class="st0" d="M23.4,129.5V44.3h14.4l28.9,57.6l28.7-57.6h14.5v85.2H97.6V65.6l-26.4,52h-9.4L35.5,65.7v63.8H23.4z"/>
	<path class="st0" d="M133.9,56.6c-2.4,0-4.3-0.7-5.8-2.2s-2.3-3.3-2.3-5.6c0-2.2,0.7-4,2.3-5.4c1.5-1.4,3.4-2.1,5.8-2.1
		c2.3,0,4.2,0.7,5.7,2.1c1.5,1.4,2.3,3.2,2.3,5.4c0,2.3-0.8,4.1-2.3,5.6C138.1,55.9,136.2,56.6,133.9,56.6z M127.7,129.5V68.2h12.2
		v61.4h-12.2V129.5z"/>
	<path class="st0" d="M157.3,129.5V68.2h11l1.1,11.6c1.4-2.8,3.2-5.1,5.4-7s4.8-3.4,7.7-4.4c3-1.1,6.3-1.6,10.2-1.6v12.9h-4.4
		c-2.5,0-4.9,0.3-7.2,0.9s-4.3,1.6-6,3.1s-3.1,3.5-4.1,6s-1.5,5.6-1.5,9.4v30.6h-12.2V129.5z"/>
	<path class="st0" d="M272.2,129.5V44.3h14.4l28.9,57.6l28.7-57.6h14.5v85.2h-12.2V65.6l-26.4,52h-9.4l-26.3-51.9v63.8H272.2z"/>
	<path class="st0" d="M396,131c-5,0-9.2-0.9-12.5-2.6c-3.3-1.7-5.8-4-7.4-6.9s-2.4-6-2.4-9.3c0-4.1,1.1-7.5,3.2-10.4s5.1-5.1,9-6.6
		s8.6-2.3,14-2.3h15.9c0-3.6-0.5-6.5-1.6-8.9s-2.6-4.1-4.7-5.3c-2.1-1.2-4.7-1.8-7.9-1.8c-3.7,0-6.8,0.9-9.4,2.6s-4.2,4.3-4.9,7.7
		h-12.2c0.5-4.3,2-8,4.4-11c2.5-3,5.7-5.4,9.6-7.1s8-2.5,12.4-2.5c5.8,0,10.6,1,14.5,3s6.8,4.9,8.8,8.6s3,8.1,3,13.2v38h-10.6
		l-1-10.3c-0.9,1.6-1.9,3.2-3.2,4.6c-1.2,1.5-2.7,2.7-4.3,3.8c-1.7,1.1-3.6,1.9-5.7,2.5C401,130.7,398.6,131,396,131z M398.3,121.1
		c2.6,0,4.9-0.5,7.1-1.6c2.1-1.1,3.9-2.5,5.4-4.3s2.6-3.9,3.4-6.2c0.8-2.3,1.2-4.7,1.3-7.1v-0.4H401c-3.5,0-6.3,0.4-8.5,1.3
		s-3.7,2-4.7,3.5s-1.5,3.2-1.5,5.1c0,2,0.5,3.8,1.4,5.2c0.9,1.4,2.3,2.5,4.1,3.3C393.6,120.7,395.8,121.1,398.3,121.1z"/>
	<path class="st0" d="M443.5,129.5V41.9h12.2v36.3c2-3.6,4.8-6.4,8.5-8.4c3.6-2,7.6-3,12-3c4.9,0,9,1,12.5,3s6.2,5,8,8.9
		c1.9,3.9,2.8,8.9,2.8,14.8v36.2h-12.1v-35c0-5.8-1.2-10.1-3.7-13.1c-2.4-3-6-4.4-10.8-4.4c-3.2,0-6.2,0.8-8.8,2.3
		c-2.6,1.5-4.7,3.8-6.2,6.8s-2.3,6.6-2.3,10.8v32.5h-12.1V129.5z"/>
	<path class="st0" d="M515.1,129.5V68.2h11l0.9,8.6c1.9-3.2,4.5-5.6,7.8-7.4c3.2-1.8,6.9-2.7,11-2.7c3.1,0,5.9,0.4,8.4,1.3
		s4.7,2.1,6.7,3.8s3.5,3.8,4.7,6.3c2.2-3.6,5.1-6.4,8.8-8.4s7.6-3,11.7-3c4.9,0,9.2,1,12.8,3s6.3,5,8.2,8.9s2.8,8.8,2.8,14.7v36.3
		h-12.1V94.4c0-5.7-1.2-10-3.5-12.9s-5.7-4.4-10.2-4.4c-3,0-5.7,0.8-8,2.3c-2.4,1.5-4.2,3.8-5.5,6.7c-1.3,2.9-2,6.5-2,10.7v32.6
		h-12.2v-35c0-5.7-1.2-10-3.5-12.9s-5.7-4.4-10.2-4.4c-2.8,0-5.4,0.8-7.8,2.3c-2.4,1.5-4.2,3.8-5.6,6.7c-1.4,2.9-2.1,6.5-2.1,10.7
		v32.6h-12.1V129.5z"/>
	<path class="st0" d="M653.5,131c-5.8,0-10.9-1.3-15.5-4s-8.2-6.4-10.8-11.3c-2.6-4.8-4-10.4-4-16.7c0-6.5,1.3-12.2,4-17
		s6.3-8.6,11-11.3s9.8-4,15.6-4s11,1.3,15.6,4c4.5,2.7,8.1,6.4,10.8,11.2c2.6,4.8,4,10.4,4,16.9s-1.3,12.1-4,16.9
		c-2.6,4.8-6.3,8.5-10.9,11.2C664.5,129.6,659.3,131,653.5,131z M653.5,120.5c3.3,0,6.3-0.8,9.1-2.4c2.7-1.6,4.9-4,6.6-7.2
		c1.7-3.2,2.5-7.2,2.5-12s-0.8-8.8-2.4-12c-1.6-3.2-3.8-5.6-6.5-7.2s-5.7-2.4-8.9-2.4s-6.3,0.8-9,2.4c-2.8,1.6-5,4-6.6,7.2
		c-1.7,3.2-2.5,7.2-2.5,12s0.8,8.8,2.5,12s3.9,5.6,6.6,7.2C647.4,119.7,650.3,120.5,653.5,120.5z"/>
	<path class="st0" d="M720.9,131c-4.8,0-8.9-1-12.5-2.9c-3.5-1.9-6.3-4.9-8.2-8.8s-2.9-8.8-2.9-14.7V68.2h12.2v35.1
		c0,5.8,1.3,10.1,3.8,13s6.1,4.4,10.8,4.4c3.2,0,6-0.8,8.6-2.3s4.6-3.8,6-6.7s2.2-6.5,2.2-10.7V68.2h12.2v61.4h-10.8l-0.9-10.5
		c-1.9,3.7-4.6,6.7-8.2,8.8C729.8,129.9,725.6,131,720.9,131z"/>
	<path class="st0" d="M797.1,131c-5.8,0-11-1.4-15.5-4.2s-7.9-6.6-10.4-11.4s-3.7-10.3-3.7-16.5s1.2-11.8,3.7-16.6
		c2.5-4.8,6-8.6,10.5-11.4s9.7-4.2,15.5-4.2c4.8,0,9,1,12.7,2.9s6.5,4.6,8.5,8.1V41.9h12.2v87.7h-10.8l-1.3-9.5
		c-1.2,1.9-2.8,3.6-4.7,5.3c-1.9,1.7-4.3,3-7.1,4.1C803.9,130.4,800.7,131,797.1,131z M799.1,120.4c3.8,0,7.2-0.9,10.1-2.7
		c2.9-1.8,5.2-4.3,6.8-7.5s2.4-7,2.4-11.3s-0.8-8.1-2.4-11.3c-1.6-3.2-3.8-5.7-6.8-7.5c-2.9-1.8-6.3-2.7-10.1-2.7
		c-3.7,0-6.9,0.9-9.9,2.7s-5.2,4.3-6.8,7.5s-2.4,7-2.4,11.3s0.8,8.1,2.4,11.3c1.6,3.2,3.9,5.8,6.8,7.5
		C792.1,119.5,795.4,120.4,799.1,120.4z"/>
	<path class="st1" d="M220.1,82.5l-0.2-0.7C200.2,33.9,174,11.7,164.2,4.5c-0.5-0.3-1.2,0.3-0.8,0.8c20.2,22,36.3,54.4,47.4,81.6
		l17.5,50.3h9.8l25.8-74h-9.6l-5.4,15.3c-8.2-0.5-17.9,1.6-25,3.2C222.5,82,221.2,82.3,220.1,82.5z M233.3,122.3l-1.5-4l-7.6-23.1
		c-0.1-0.2,0-0.4,0.2-0.5c6.7-6.7,16.5-8.3,21.7-8.6L233.3,122.3z"/>
</g>
</svg>
