<?xml version="1.0" encoding="utf-8"?>
<!-- Generator: Adobe Illustrator 24.1.2, SVG Export Plug-In . SVG Version: 6.00 Build 0)  -->
<svg version="1.1" id="Layer_1" xmlns="http://www.w3.org/2000/svg" xmlns:xlink="http://www.w3.org/1999/xlink" x="0px" y="0px"
	 viewBox="0 0 186 186" style="enable-background:new 0 0 186 186;" xml:space="preserve">
<style type="text/css">
	.st0{fill:#FFFFFF;}
</style>
<g>
	<path class="st0" d="M136.1,16.2l1.4-2l-2.4,0.3v-1.3l2.4,0.3l-1.5-1.9l1.1-0.7l1,2.3l1-2.3l1.1,0.6l-1.5,2l2.5-0.3l0,1.3l-2.4-0.3
		l1.5,1.9l-1.1,0.7l-1-2.2l-1,2.3L136.1,16.2z"/>
	<path class="st0" d="M147.4,31.8c-0.6-0.6-1.1-1.2-1.4-1.8c-0.3-0.7-0.4-1.3-0.3-1.9c0.1-0.6,0.4-1.2,0.9-1.8l1.3,1.2
		c-0.3,0.3-0.4,0.7-0.5,1.1s-0.1,0.8,0.1,1.2c0.1,0.4,0.4,0.8,0.8,1.1c0.3,0.3,0.7,0.5,1.1,0.6c0.4,0.1,0.7,0.1,1,0
		c0.3-0.1,0.6-0.3,0.8-0.5c0.3-0.3,0.4-0.6,0.5-0.9c0-0.3,0-0.7-0.1-1c-0.1-0.3-0.3-0.7-0.5-1.1s-0.5-0.8-0.7-1.2
		c-0.5-0.8-0.7-1.6-0.8-2.2s0.2-1.3,0.7-1.8c0.4-0.5,0.9-0.8,1.5-1c0.5-0.2,1.1-0.1,1.7,0c0.6,0.2,1.2,0.5,1.7,1
		c0.6,0.5,1,1,1.2,1.6c0.2,0.6,0.3,1.2,0.2,1.7s-0.3,1.1-0.8,1.6l-1.3-1.2c0.2-0.2,0.3-0.5,0.4-0.8c0.1-0.3,0.1-0.6-0.1-1
		c-0.1-0.3-0.3-0.7-0.7-1c-0.3-0.3-0.6-0.4-0.9-0.5s-0.6-0.1-0.9,0c-0.3,0.1-0.6,0.3-0.8,0.5c-0.2,0.3-0.4,0.5-0.4,0.8
		c0,0.3,0,0.5,0.1,0.8c0.1,0.3,0.3,0.6,0.5,1c0.2,0.3,0.4,0.7,0.7,1.2c0.3,0.5,0.5,1,0.7,1.5c0.2,0.5,0.2,1,0.1,1.5
		c-0.1,0.5-0.4,1-0.8,1.5c-0.4,0.4-0.8,0.7-1.4,0.9s-1.2,0.2-1.8,0C148.7,32.8,148.1,32.4,147.4,31.8z"/>
	<path class="st0" d="M157.4,42.4c-0.5-0.6-0.8-1.3-0.9-2s0-1.4,0.3-2.1s0.8-1.3,1.5-1.8c0.7-0.5,1.4-0.9,2.1-1
		c0.7-0.1,1.4-0.1,2.1,0.2c0.7,0.3,1.3,0.7,1.8,1.3c0.5,0.6,0.8,1.3,0.9,2c0.1,0.7,0,1.3-0.3,2s-0.7,1.2-1.3,1.6
		c-0.1,0.1-0.2,0.1-0.3,0.2c-0.1,0.1-0.2,0.2-0.3,0.2l-4.2-5.3l0.9-0.7l3.2,4.1c0.5-0.5,0.8-1,0.8-1.6c0-0.6-0.1-1.1-0.5-1.6
		c-0.3-0.4-0.6-0.6-1-0.8s-0.8-0.2-1.3-0.2c-0.4,0.1-0.9,0.3-1.4,0.7l-0.4,0.3c-0.5,0.4-0.8,0.8-1,1.2c-0.2,0.4-0.3,0.9-0.2,1.3
		c0.1,0.4,0.2,0.8,0.5,1.2c0.3,0.4,0.7,0.7,1.1,0.8s0.8,0.1,1.2,0l1,1.3c-0.5,0.2-1,0.3-1.5,0.3c-0.5,0-1-0.2-1.5-0.4
		C158.2,43.3,157.8,42.9,157.4,42.4z"/>
	<path class="st0" d="M163.6,51l7.3-3.9l0.7,1.3l-1.2,0.8c0.6,0,1.1,0.1,1.6,0.4c0.5,0.3,0.9,0.7,1.2,1.3c0.3,0.6,0.5,1.1,0.5,1.7
		c0,0.5-0.2,1.1-0.5,1.5s-0.9,0.9-1.6,1.3l-4.3,2.3l-0.8-1.5l4.2-2.2c0.7-0.4,1.1-0.8,1.3-1.3s0.1-1-0.2-1.6
		c-0.2-0.4-0.5-0.7-0.8-0.9c-0.3-0.2-0.7-0.3-1.2-0.3c-0.4,0-0.9,0.1-1.4,0.4l-3.9,2.1L163.6,51z"/>
	<path class="st0" d="M170,64.5l7.8-2.8l0.6,1.6l-7.8,2.8L170,64.5z M179.6,62c-0.1-0.3-0.1-0.6,0-0.8c0.1-0.3,0.3-0.4,0.6-0.5
		c0.3-0.1,0.5-0.1,0.8,0c0.3,0.1,0.4,0.3,0.5,0.6c0.1,0.3,0.1,0.6,0,0.8c-0.1,0.3-0.3,0.4-0.6,0.5c-0.3,0.1-0.6,0.1-0.8,0
		S179.7,62.3,179.6,62z"/>
	<path class="st0" d="M173.3,77c-0.2-0.8-0.1-1.5,0.1-2.2c0.2-0.7,0.6-1.3,1.2-1.7c0.6-0.5,1.3-0.8,2.1-1c0.9-0.2,1.7-0.1,2.4,0.1
		c0.7,0.2,1.3,0.6,1.8,1.2c0.5,0.5,0.8,1.2,0.9,2c0.2,0.8,0.1,1.5-0.1,2.2s-0.6,1.3-1.2,1.7c-0.6,0.5-1.3,0.8-2.2,1
		c-0.9,0.2-1.7,0.1-2.4-0.1s-1.3-0.6-1.8-1.2C173.8,78.4,173.5,77.8,173.3,77z M174.7,76.7c0.1,0.4,0.3,0.8,0.6,1.1
		c0.3,0.3,0.7,0.5,1.1,0.7c0.5,0.1,1,0.1,1.7,0c0.6-0.1,1.1-0.3,1.5-0.6c0.4-0.3,0.6-0.7,0.8-1.1s0.2-0.8,0.1-1.3s-0.3-0.8-0.6-1.1
		c-0.3-0.3-0.7-0.6-1.1-0.7c-0.5-0.1-1-0.1-1.7,0c-0.6,0.1-1.1,0.3-1.5,0.6c-0.4,0.3-0.6,0.7-0.8,1.1
		C174.7,75.9,174.6,76.3,174.7,76.7z"/>
	<path class="st0" d="M175,88l8.3-0.3l0.1,1.5l-1.6,0.2c0.4,0.2,0.7,0.4,1,0.7s0.5,0.6,0.6,1c0.2,0.4,0.2,0.9,0.3,1.4l-1.8,0.1
		l0-0.6c0-0.3-0.1-0.7-0.2-1c-0.1-0.3-0.2-0.6-0.5-0.8c-0.2-0.2-0.5-0.4-0.8-0.5c-0.3-0.1-0.8-0.2-1.3-0.2l-4.1,0.1L175,88z"/>
	<path class="st0" d="M174,107.3l10.3,6.8l-0.4,1.8l-12.3,1.4l0.4-1.7l10.1-1l-8.5-5.6L174,107.3z M176.3,109.9l1.2,0.8l-1.3,5.3
		l-1.4,0.1L176.3,109.9z"/>
	<path class="st0" d="M167.8,126.4c0.3-0.7,0.8-1.3,1.4-1.7c0.6-0.4,1.3-0.7,2-0.7c0.7-0.1,1.5,0.1,2.3,0.4c0.8,0.4,1.4,0.8,1.9,1.4
		c0.5,0.6,0.7,1.3,0.8,2c0.1,0.7,0,1.5-0.4,2.2c-0.4,0.9-1,1.6-1.8,2c-0.8,0.4-1.6,0.5-2.5,0.3l0.7-1.6c0.5,0.1,0.9,0,1.3-0.2
		c0.4-0.3,0.7-0.6,0.9-1.1c0.2-0.4,0.2-0.8,0.2-1.3c-0.1-0.4-0.2-0.8-0.5-1.2s-0.8-0.7-1.3-1c-0.4-0.2-0.8-0.3-1.2-0.3
		c-0.4,0-0.7,0-1.1,0.1c-0.3,0.1-0.6,0.3-0.8,0.5c-0.2,0.2-0.4,0.5-0.6,0.8c-0.1,0.3-0.2,0.7-0.2,1c0,0.3,0,0.6,0.2,0.9
		c0.1,0.3,0.3,0.5,0.6,0.7l-0.7,1.6c-0.7-0.5-1.2-1.2-1.4-2.1C167.2,128.3,167.4,127.4,167.8,126.4z"/>
	<path class="st0" d="M160.7,139.1c0.5-0.7,1-1.2,1.7-1.5c0.7-0.3,1.4-0.4,2.1-0.4c0.7,0.1,1.5,0.3,2.2,0.8c0.7,0.5,1.3,1.1,1.6,1.7
		s0.5,1.4,0.4,2.1s-0.3,1.4-0.8,2.1c-0.6,0.8-1.3,1.4-2.1,1.7c-0.8,0.3-1.7,0.2-2.5-0.1l1-1.4c0.5,0.2,0.9,0.2,1.4,0
		c0.4-0.2,0.8-0.5,1.1-0.9c0.2-0.4,0.4-0.8,0.4-1.2c0-0.4-0.1-0.9-0.3-1.3c-0.2-0.4-0.6-0.8-1.1-1.2c-0.4-0.3-0.8-0.4-1.2-0.5
		c-0.4-0.1-0.7-0.1-1.1-0.1c-0.3,0-0.6,0.2-0.9,0.3s-0.5,0.4-0.7,0.7c-0.2,0.3-0.3,0.6-0.4,0.9s-0.1,0.6,0,0.9
		c0.1,0.3,0.2,0.6,0.4,0.8l-1,1.4c-0.6-0.7-1-1.4-1-2.3S160.1,139.9,160.7,139.1z"/>
	<path class="st0" d="M151.5,150.3c0.5-0.6,1.2-0.9,1.9-1.1c0.7-0.2,1.4-0.2,2.1,0c0.7,0.2,1.4,0.6,2,1.2c0.6,0.6,1.1,1.3,1.3,2
		c0.2,0.7,0.2,1.4,0.1,2.1c-0.2,0.7-0.5,1.3-1.1,1.9c-0.6,0.6-1.2,0.9-1.9,1.1c-0.7,0.2-1.4,0.2-2.1,0c-0.7-0.2-1.4-0.6-2-1.2
		c-0.6-0.6-1.1-1.3-1.3-2s-0.2-1.4-0.1-2.1C150.6,151.5,150.9,150.9,151.5,150.3z M152.5,151.3c-0.3,0.3-0.5,0.7-0.6,1.1
		c-0.1,0.4-0.1,0.9,0.1,1.3c0.2,0.5,0.5,0.9,0.9,1.4c0.5,0.5,0.9,0.8,1.4,0.9c0.5,0.1,0.9,0.2,1.3,0.1c0.4-0.1,0.8-0.3,1.1-0.6
		c0.3-0.3,0.5-0.7,0.6-1.1s0.1-0.9-0.1-1.3c-0.2-0.5-0.5-0.9-0.9-1.4s-0.9-0.8-1.4-0.9c-0.5-0.1-0.9-0.2-1.3-0.1
		S152.8,151,152.5,151.3z"/>
	<path class="st0" d="M140.9,159.4c0.5-0.4,1.1-0.6,1.6-0.7c0.5-0.1,1.1,0,1.6,0.3c0.5,0.3,1,0.8,1.5,1.4l2.9,4l-1.3,1l-2.8-3.9
		c-0.5-0.6-0.9-1-1.4-1.1c-0.5-0.1-1,0-1.5,0.4c-0.4,0.2-0.6,0.6-0.8,0.9c-0.2,0.4-0.2,0.8-0.1,1.2c0.1,0.4,0.3,0.9,0.6,1.4l2.6,3.6
		l-1.3,1l-4.8-6.8l1.2-0.9l0.9,1.1c-0.1-0.6,0-1.1,0.2-1.6C140,160.3,140.3,159.8,140.9,159.4z"/>
	<path class="st0" d="M131.2,165.8l3.5,7.5l-1.3,0.6l-0.7-1.2c0,0.6-0.2,1.1-0.5,1.5c-0.3,0.5-0.8,0.8-1.3,1.1
		c-0.6,0.3-1.2,0.4-1.7,0.4c-0.5,0-1-0.2-1.5-0.6s-0.9-0.9-1.2-1.7l-2.1-4.5l1.5-0.7l2,4.3c0.3,0.7,0.7,1.2,1.2,1.4
		c0.5,0.2,1,0.2,1.6-0.1c0.4-0.2,0.7-0.4,0.9-0.8s0.3-0.7,0.4-1.2c0-0.4-0.1-0.9-0.3-1.4l-1.9-4L131.2,165.8z"/>
	<path class="st0" d="M114.3,172.3c0.5-0.1,1-0.2,1.4-0.1c0.4,0.1,0.8,0.2,1.1,0.6c0.3,0.3,0.6,0.8,0.7,1.4l1.2,4.1l1.4-0.4l0.4,1.4
		l-1.4,0.4l0.4,2.1l-1.4,0.4l-0.6-2l-2.3,0.6l-0.4-1.4l2.3-0.6l-1.2-4.1c-0.1-0.5-0.3-0.7-0.6-0.8c-0.2-0.1-0.6-0.1-1.1,0l-0.9,0.3
		l-0.4-1.4L114.3,172.3z"/>
	<path class="st0" d="M103.4,174.2c0.7-0.1,1.3,0,1.7,0.1c0.5,0.2,0.8,0.4,1.1,0.8c0.3,0.4,0.4,0.8,0.5,1.2c0.1,0.5,0,1-0.3,1.5
		c-0.2,0.4-0.6,0.8-1.1,1c-0.5,0.3-1.1,0.4-1.9,0.5l-2.2,0.3c0.1,0.5,0.2,0.9,0.4,1.2s0.4,0.5,0.7,0.6c0.3,0.1,0.7,0.2,1.1,0.1
		c0.5-0.1,0.9-0.2,1.2-0.5c0.3-0.3,0.5-0.7,0.5-1.1l1.6-0.2c0,0.6-0.1,1.1-0.4,1.6c-0.3,0.5-0.7,0.8-1.2,1.1c-0.5,0.3-1,0.5-1.6,0.5
		c-0.8,0.1-1.4,0-2-0.2c-0.6-0.2-1-0.6-1.3-1s-0.5-1-0.6-1.7l-0.6-5.1l1.4-0.2l0.3,1.4c0.1-0.2,0.2-0.5,0.4-0.7
		c0.1-0.2,0.3-0.4,0.5-0.6c0.2-0.2,0.5-0.3,0.7-0.4C102.7,174.3,103.1,174.3,103.4,174.2z M103.3,175.6c-0.3,0-0.7,0.2-0.9,0.3
		c-0.3,0.2-0.5,0.4-0.7,0.7c-0.2,0.3-0.3,0.6-0.4,0.9s-0.1,0.7-0.1,1l0,0l2-0.2c0.5-0.1,0.8-0.2,1.1-0.3c0.3-0.1,0.5-0.3,0.6-0.5
		s0.1-0.5,0.1-0.7c0-0.3-0.1-0.5-0.3-0.7c-0.1-0.2-0.3-0.3-0.6-0.4S103.6,175.6,103.3,175.6z"/>
	<path class="st0" d="M92.1,175.2l-0.5,8.3l-1.5-0.1l0-1.4c-0.3,0.5-0.7,0.9-1.2,1.1c-0.5,0.3-1.1,0.4-1.7,0.3
		c-0.7,0-1.2-0.2-1.7-0.5c-0.5-0.3-0.8-0.7-1-1.3s-0.3-1.2-0.3-2l0.3-4.9l1.7,0.1l-0.3,4.8c0,0.8,0.1,1.4,0.4,1.8
		c0.3,0.4,0.8,0.6,1.5,0.7c0.4,0,0.8-0.1,1.2-0.2c0.4-0.2,0.6-0.5,0.9-0.9s0.4-0.9,0.4-1.4l0.2-4.4L92.1,175.2z"/>
	<path class="st0" d="M74.1,172.9c0.5,0.1,0.9,0.3,1.3,0.5c0.3,0.2,0.6,0.6,0.7,1s0.1,1,0,1.6l-0.9,4.2l1.4,0.3l-0.3,1.4l-1.4-0.3
		l-0.6,2l-1.4-0.3l0.4-2l-2.3-0.5l0.3-1.4l2.3,0.5l0.9-4.2c0.1-0.5,0.1-0.8-0.1-1s-0.5-0.4-0.9-0.5l-0.9-0.2l0.3-1.4L74.1,172.9z"/>
	<path class="st0" d="M53.2,171.5l-1.3,2.1l2.4-0.4l0.1,1.3l-2.4-0.2l1.6,1.8l-1.1,0.7l-1.1-2.2l-0.9,2.3l-1.1-0.6l1.4-2.1l-2.4,0.4
		l0-1.3l2.4,0.2l-1.6-1.9l1.1-0.7l1.1,2.2l0.9-2.3L53.2,171.5z"/>
	<path class="st0" d="M37,152.7c0.6,0.6,1.1,1.2,1.3,1.9s0.3,1.3,0.2,2c-0.1,0.6-0.4,1.2-0.9,1.8l-1.3-1.2c0.3-0.3,0.5-0.7,0.6-1
		c0.1-0.4,0.1-0.8-0.1-1.2c-0.1-0.4-0.4-0.8-0.8-1.2c-0.3-0.3-0.7-0.5-1-0.6c-0.4-0.1-0.7-0.1-1-0.1c-0.3,0.1-0.6,0.2-0.8,0.5
		c-0.3,0.3-0.4,0.6-0.5,0.9c0,0.3,0,0.7,0.1,1s0.3,0.7,0.5,1.1s0.4,0.8,0.7,1.2c0.5,0.8,0.7,1.6,0.7,2.2c0,0.7-0.3,1.3-0.8,1.8
		c-0.4,0.5-0.9,0.8-1.5,0.9c-0.6,0.1-1.1,0.1-1.7-0.1s-1.2-0.5-1.7-1.1c-0.5-0.5-0.9-1.1-1.2-1.6c-0.2-0.6-0.3-1.2-0.2-1.7
		c0.1-0.6,0.4-1.1,0.8-1.6l1.3,1.2c-0.2,0.2-0.3,0.5-0.4,0.8c-0.1,0.3-0.1,0.6,0,1c0.1,0.3,0.3,0.7,0.6,1c0.3,0.3,0.6,0.5,0.9,0.6
		c0.3,0.1,0.6,0.1,0.9,0.1s0.6-0.2,0.8-0.5c0.2-0.3,0.4-0.5,0.4-0.8s0-0.5-0.1-0.9s-0.3-0.6-0.4-1s-0.4-0.7-0.6-1.2
		c-0.3-0.5-0.5-1-0.6-1.5c-0.1-0.5-0.2-1-0.1-1.5s0.4-1,0.8-1.5c0.4-0.4,0.9-0.7,1.4-0.9s1.2-0.2,1.8,0
		C35.7,151.8,36.4,152.1,37,152.7z"/>
	<path class="st0" d="M27.4,141.9c0.5,0.6,0.8,1.3,0.8,2c0.1,0.7,0,1.4-0.4,2.1s-0.8,1.3-1.5,1.8c-0.7,0.5-1.4,0.9-2.2,1
		c-0.7,0.1-1.4,0-2.1-0.2c-0.7-0.3-1.2-0.7-1.7-1.4c-0.5-0.7-0.8-1.3-0.8-2c-0.1-0.7,0.1-1.3,0.3-2c0.3-0.6,0.7-1.1,1.3-1.6
		c0.1-0.1,0.2-0.1,0.3-0.2c0.1-0.1,0.2-0.1,0.4-0.2l4.1,5.5l-0.9,0.7l-3.1-4.2c-0.5,0.4-0.8,1-0.9,1.5c-0.1,0.6,0.1,1.1,0.5,1.6
		c0.3,0.4,0.6,0.6,1,0.8c0.4,0.2,0.8,0.2,1.3,0.2s0.9-0.3,1.4-0.6l0.4-0.3c0.5-0.4,0.8-0.8,1-1.2c0.2-0.4,0.3-0.9,0.2-1.3
		c-0.1-0.4-0.2-0.8-0.5-1.2c-0.3-0.4-0.7-0.7-1.1-0.8c-0.4-0.1-0.8-0.1-1.2,0l-1-1.3c0.5-0.2,1-0.3,1.5-0.2s1,0.2,1.5,0.4
		C26.5,141,27,141.4,27.4,141.9z"/>
	<path class="st0" d="M21.3,133.1l-7.4,3.7l-0.7-1.3l1.2-0.7c-0.6,0-1.1-0.2-1.6-0.5c-0.5-0.3-0.9-0.7-1.1-1.3
		c-0.3-0.6-0.4-1.2-0.4-1.7c0-0.5,0.2-1.1,0.6-1.5s0.9-0.9,1.6-1.3l4.4-2.2l0.7,1.5l-4.3,2.1c-0.7,0.3-1.1,0.8-1.3,1.2
		c-0.2,0.5-0.2,1,0.1,1.6c0.2,0.4,0.5,0.7,0.8,0.9c0.3,0.2,0.7,0.3,1.2,0.3c0.4,0,0.9-0.1,1.4-0.4l4-2L21.3,133.1z"/>
	<path class="st0" d="M5.6,121.8c0.1,0.3,0.1,0.6,0,0.8c-0.1,0.3-0.3,0.4-0.6,0.5c-0.3,0.1-0.5,0.1-0.8-0.1
		c-0.2-0.1-0.4-0.4-0.5-0.7c-0.1-0.3-0.1-0.6,0-0.8c0.1-0.3,0.3-0.4,0.6-0.5c0.3-0.1,0.6-0.1,0.8,0.1S5.5,121.5,5.6,121.8z
		 M15.3,119.5l-7.9,2.6l-0.5-1.6l7.9-2.6L15.3,119.5z"/>
	<path class="st0" d="M12.3,106.9c0.1,0.8,0.1,1.5-0.2,2.2c-0.3,0.7-0.7,1.2-1.3,1.7c-0.6,0.5-1.3,0.8-2.2,0.9
		c-0.9,0.1-1.7,0.1-2.4-0.1c-0.7-0.2-1.3-0.7-1.8-1.2c-0.5-0.6-0.8-1.2-0.9-2c-0.1-0.8-0.1-1.5,0.2-2.2s0.7-1.2,1.3-1.7
		s1.3-0.8,2.2-0.9c0.9-0.1,1.7-0.1,2.4,0.1c0.7,0.2,1.3,0.6,1.7,1.2C11.9,105.5,12.2,106.1,12.3,106.9z M10.9,107.2
		c-0.1-0.4-0.3-0.8-0.5-1.2c-0.3-0.3-0.7-0.6-1.1-0.7c-0.5-0.1-1-0.2-1.7-0.1c-0.6,0.1-1.2,0.3-1.6,0.6c-0.4,0.3-0.7,0.6-0.8,1
		c-0.2,0.4-0.2,0.8-0.1,1.3s0.3,0.8,0.5,1.2c0.3,0.3,0.7,0.6,1.1,0.7c0.5,0.1,1,0.2,1.7,0.1c0.6-0.1,1.2-0.3,1.5-0.6s0.7-0.6,0.8-1
		C10.9,108,11,107.6,10.9,107.2z"/>
	<path class="st0" d="M11,95.8L2.6,96l0-1.5l1.6-0.2c-0.4-0.2-0.7-0.4-1-0.7c-0.3-0.3-0.5-0.6-0.6-1c-0.1-0.4-0.2-0.9-0.2-1.4l1.8,0
		l0,0.6c0,0.3,0.1,0.7,0.1,1c0.1,0.3,0.2,0.6,0.4,0.8s0.5,0.4,0.8,0.5c0.3,0.1,0.8,0.2,1.3,0.2l4.2-0.1L11,95.8z"/>
	<path class="st0" d="M12.4,76.6L2.3,69.5l0.5-1.7l12.3-1.1l-0.5,1.7L4.5,69.1l8.4,5.8L12.4,76.6z M10.1,74L9,73.2l1.4-5.3l1.4-0.1
		L10.1,74z"/>
	<path class="st0" d="M19.1,57.6c-0.3,0.7-0.8,1.3-1.4,1.7c-0.6,0.4-1.3,0.6-2,0.7c-0.7,0-1.5-0.1-2.3-0.5c-0.8-0.4-1.4-0.9-1.8-1.5
		c-0.4-0.6-0.7-1.3-0.8-2c-0.1-0.7,0.1-1.5,0.4-2.2c0.4-0.9,1-1.6,1.8-2c0.8-0.4,1.6-0.5,2.5-0.3l-0.7,1.6c-0.5-0.1-0.9,0-1.3,0.2
		c-0.4,0.2-0.7,0.6-1,1.1c-0.2,0.4-0.3,0.8-0.2,1.3c0,0.4,0.2,0.8,0.5,1.2c0.3,0.4,0.7,0.7,1.3,1c0.4,0.2,0.8,0.3,1.2,0.4
		c0.4,0,0.7,0,1.1-0.1c0.3-0.1,0.6-0.2,0.9-0.5s0.4-0.5,0.6-0.8c0.2-0.3,0.2-0.6,0.3-1c0-0.3,0-0.6-0.1-0.9
		c-0.1-0.3-0.3-0.5-0.6-0.7l0.7-1.6c0.7,0.5,1.2,1.2,1.4,2.1C19.7,55.8,19.6,56.7,19.1,57.6z"/>
	<path class="st0" d="M26.6,45.1c-0.5,0.7-1,1.1-1.7,1.4c-0.7,0.3-1.4,0.4-2.1,0.3c-0.7-0.1-1.5-0.4-2.2-0.9
		c-0.7-0.5-1.2-1.1-1.5-1.8s-0.5-1.4-0.4-2.1c0.1-0.7,0.3-1.4,0.8-2.1c0.6-0.8,1.3-1.4,2.1-1.6c0.8-0.2,1.7-0.2,2.5,0.2l-1,1.4
		c-0.5-0.2-0.9-0.2-1.4,0c-0.4,0.2-0.8,0.5-1.1,0.9c-0.3,0.4-0.4,0.8-0.4,1.2c0,0.4,0.1,0.9,0.3,1.3c0.2,0.4,0.6,0.8,1.1,1.2
		c0.4,0.3,0.8,0.5,1.1,0.6c0.4,0.1,0.7,0.1,1.1,0.1c0.3,0,0.6-0.1,0.9-0.3c0.3-0.2,0.5-0.4,0.7-0.7c0.2-0.3,0.4-0.6,0.4-0.9
		c0.1-0.3,0.1-0.6,0-0.9c-0.1-0.3-0.2-0.6-0.4-0.8l1-1.4c0.6,0.7,0.9,1.4,1,2.3C27.4,43.5,27.1,44.3,26.6,45.1z"/>
	<path class="st0" d="M36,34.2c-0.6,0.5-1.2,0.9-1.9,1.1s-1.4,0.1-2.1-0.1c-0.7-0.2-1.4-0.6-2-1.3c-0.6-0.6-1-1.3-1.2-2
		c-0.2-0.7-0.2-1.4,0-2.1s0.6-1.3,1.1-1.9c0.6-0.6,1.2-0.9,1.9-1.1c0.7-0.2,1.4-0.1,2.1,0.1c0.7,0.2,1.4,0.6,2,1.3
		c0.6,0.6,1,1.3,1.2,2s0.2,1.4,0,2.1C37,33,36.6,33.6,36,34.2z M35,33.2c0.3-0.3,0.5-0.7,0.7-1.1c0.1-0.4,0.1-0.9,0-1.3
		c-0.1-0.5-0.4-0.9-0.9-1.4c-0.5-0.5-0.9-0.8-1.4-0.9c-0.5-0.2-0.9-0.2-1.3-0.1c-0.4,0.1-0.8,0.3-1.1,0.6c-0.3,0.3-0.5,0.7-0.6,1.1
		c-0.1,0.4-0.1,0.9,0,1.3c0.1,0.5,0.4,0.9,0.9,1.4s0.9,0.8,1.4,0.9c0.5,0.2,0.9,0.2,1.3,0.1S34.7,33.5,35,33.2z"/>
	<path class="st0" d="M46.9,25.3c-0.5,0.4-1.1,0.6-1.6,0.6c-0.5,0-1.1-0.1-1.6-0.4c-0.5-0.3-1-0.8-1.4-1.4L39.5,20l1.4-0.9l2.7,4
		c0.4,0.7,0.9,1,1.4,1.2c0.5,0.1,1,0,1.6-0.3c0.4-0.2,0.6-0.5,0.8-0.9c0.2-0.4,0.2-0.8,0.2-1.2c-0.1-0.4-0.2-0.9-0.6-1.4l-2.5-3.7
		l1.4-0.9l4.6,6.9l-1.2,0.8l-0.9-1.1c0.1,0.6,0,1.1-0.3,1.6C47.8,24.5,47.4,25,46.9,25.3z"/>
	<path class="st0" d="M56.7,19.3l-3.3-7.6l1.4-0.6l0.7,1.3c0-0.6,0.2-1.1,0.6-1.5c0.3-0.5,0.8-0.8,1.4-1.1c0.6-0.3,1.2-0.4,1.7-0.3
		c0.5,0.1,1,0.3,1.5,0.7c0.5,0.4,0.8,0.9,1.2,1.7l2,4.5l-1.5,0.7l-1.9-4.4c-0.3-0.7-0.7-1.2-1.2-1.4c-0.5-0.2-1-0.2-1.6,0.1
		c-0.4,0.2-0.7,0.4-0.9,0.7c-0.2,0.3-0.4,0.7-0.4,1.2s0.1,0.9,0.3,1.5l1.8,4.1L56.7,19.3z"/>
	<path class="st0" d="M73.8,13.2c-0.5,0.1-1,0.2-1.4,0.1c-0.4-0.1-0.8-0.3-1.1-0.6c-0.3-0.3-0.5-0.8-0.7-1.4l-1.1-4.2l-1.4,0.4
		l-0.3-1.4l1.4-0.4l-0.3-2.1l1.4-0.4l0.5,2l2.3-0.6l0.3,1.4l-2.3,0.6l1.1,4.2c0.1,0.5,0.3,0.7,0.5,0.9c0.2,0.1,0.6,0.1,1.1,0
		l0.9-0.2l0.3,1.4L73.8,13.2z"/>
	<path class="st0" d="M84.7,11.5c-0.7,0.1-1.3,0-1.7-0.2c-0.5-0.2-0.8-0.5-1.1-0.8c-0.3-0.4-0.4-0.8-0.4-1.2c-0.1-0.5,0-1,0.3-1.4
		s0.6-0.8,1.1-1c0.5-0.3,1.1-0.4,1.9-0.5l2.2-0.2c0-0.5-0.2-0.9-0.3-1.2c-0.2-0.3-0.4-0.5-0.7-0.7c-0.3-0.1-0.7-0.2-1.1-0.1
		c-0.5,0-0.9,0.2-1.2,0.5C83.2,4.9,83,5.3,83,5.7l-1.6,0.2c0-0.6,0.2-1.1,0.5-1.5c0.3-0.4,0.7-0.8,1.2-1.1c0.5-0.3,1.1-0.4,1.6-0.5
		c0.8-0.1,1.4,0,2,0.2c0.6,0.2,1,0.6,1.3,1.1c0.3,0.5,0.5,1.1,0.6,1.8l0.5,5.1l-1.4,0.1l-0.3-1.4c-0.1,0.2-0.2,0.5-0.4,0.7
		c-0.1,0.2-0.3,0.4-0.5,0.6c-0.2,0.2-0.5,0.3-0.7,0.4C85.4,11.4,85.1,11.5,84.7,11.5z M84.9,10.2c0.4,0,0.7-0.1,0.9-0.3
		s0.5-0.4,0.7-0.7c0.2-0.3,0.3-0.6,0.4-0.9C87,8,87,7.7,87,7.4l0,0l-2,0.2c-0.5,0-0.8,0.1-1.1,0.3c-0.3,0.1-0.5,0.3-0.6,0.5
		c-0.1,0.2-0.2,0.4-0.1,0.7c0,0.3,0.1,0.5,0.3,0.7c0.1,0.2,0.3,0.3,0.6,0.4C84.3,10.2,84.6,10.2,84.9,10.2z"/>
	<path class="st0" d="M96.1,10.9l0.7-8.3l1.5,0.1l0,1.4c0.3-0.5,0.7-0.8,1.2-1.1s1.1-0.4,1.7-0.3c0.7,0.1,1.2,0.2,1.7,0.5
		c0.5,0.3,0.8,0.7,1,1.3s0.3,1.2,0.2,2l-0.4,4.9l-1.6-0.1l0.4-4.7c0.1-0.8-0.1-1.4-0.4-1.8c-0.3-0.4-0.8-0.7-1.4-0.7
		c-0.4,0-0.8,0-1.2,0.2c-0.4,0.2-0.7,0.5-0.9,0.8c-0.2,0.4-0.4,0.9-0.4,1.4L97.7,11L96.1,10.9z"/>
	<path class="st0" d="M114,13.6c-0.5-0.1-0.9-0.3-1.3-0.6c-0.3-0.3-0.6-0.6-0.7-1c-0.1-0.4-0.1-1,0.1-1.6l1-4.2l-1.4-0.3l0.3-1.4
		l1.4,0.3l0.7-2l1.4,0.4l-0.5,2l2.3,0.6l-0.3,1.4l-2.3-0.6l-1,4.2c-0.1,0.5-0.1,0.8,0.1,1s0.5,0.4,0.9,0.5l0.9,0.2l-0.3,1.4
		L114,13.6z"/>
</g>
</svg>
